<?xml version="1.0" encoding="UTF-8" standalone="no"?>
<!DOCTYPE svg PUBLIC "-//W3C//DTD SVG 1.1//EN"
 "http://www.w3.org/Graphics/SVG/1.1/DTD/svg11.dtd">
<!-- Generated by graphviz version 2.40.1 (20161225.0304)
 -->
<!-- Title: G Pages: 1 -->
<svg width="511pt" height="525pt"
 viewBox="0.00 0.00 510.87 525.00" xmlns="http://www.w3.org/2000/svg" xmlns:xlink="http://www.w3.org/1999/xlink">
<g id="graph0" class="graph" transform="scale(1 1) rotate(0) translate(4 521)">
<title>G</title>
<polygon fill="#ffffff" stroke="transparent" points="-4,4 -4,-521 506.8662,-521 506.8662,4 -4,4"/>
<g id="clust1" class="cluster">
<title>cluster_Global</title>
<path fill="none" stroke="#c0c0c0" d="M156.834,-8C156.834,-8 482.8662,-8 482.8662,-8 488.8662,-8 494.8662,-14 494.8662,-20 494.8662,-20 494.8662,-497 494.8662,-497 494.8662,-503 488.8662,-509 482.8662,-509 482.8662,-509 156.834,-509 156.834,-509 150.834,-509 144.834,-503 144.834,-497 144.834,-497 144.834,-20 144.834,-20 144.834,-14 150.834,-8 156.834,-8"/>
<text text-anchor="middle" x="319.8501" y="-496.2" font-family="Times,serif" font-size="11.00" fill="#c0c0c0">Global</text>
</g>
<g id="clust2" class="cluster">
<title>cluster_\Async</title>
<path fill="none" stroke="#c0c0c0" d="M164.834,-16C164.834,-16 474.8662,-16 474.8662,-16 480.8662,-16 486.8662,-22 486.8662,-28 486.8662,-28 486.8662,-470 486.8662,-470 486.8662,-476 480.8662,-482 474.8662,-482 474.8662,-482 164.834,-482 164.834,-482 158.834,-482 152.834,-476 152.834,-470 152.834,-470 152.834,-28 152.834,-28 152.834,-22 158.834,-16 164.834,-16"/>
<text text-anchor="middle" x="319.8501" y="-469.2" font-family="Times,serif" font-size="11.00" fill="#c0c0c0">Async</text>
</g>
<g id="clust3" class="cluster">
<title>cluster_\Async\Exception</title>
<path fill="none" stroke="#c0c0c0" d="M172.834,-70C172.834,-70 466.8662,-70 466.8662,-70 472.8662,-70 478.8662,-76 478.8662,-82 478.8662,-82 478.8662,-345 478.8662,-345 478.8662,-351 472.8662,-357 466.8662,-357 466.8662,-357 172.834,-357 172.834,-357 166.834,-357 160.834,-351 160.834,-345 160.834,-345 160.834,-82 160.834,-82 160.834,-76 166.834,-70 172.834,-70"/>
<text text-anchor="middle" x="319.8501" y="-344.2" font-family="Times,serif" font-size="11.00" fill="#c0c0c0">Exception</text>
</g>
<g id="clust4" class="cluster">
<title>cluster_\Async\Contract</title>
<path fill="none" stroke="#c0c0c0" d="M176.1345,-384C176.1345,-384 263.3474,-384 263.3474,-384 269.3474,-384 275.3474,-390 275.3474,-396 275.3474,-396 275.3474,-443 275.3474,-443 275.3474,-449 269.3474,-455 263.3474,-455 263.3474,-455 176.1345,-455 176.1345,-455 170.1345,-455 164.1345,-449 164.1345,-443 164.1345,-443 164.1345,-396 164.1345,-396 164.1345,-390 170.1345,-384 176.1345,-384"/>
<text text-anchor="middle" x="219.741" y="-442.2" font-family="Times,serif" font-size="11.00" fill="#c0c0c0">Contract</text>
</g>
<!-- \\Async\\Exception\\SessionException -->
<g id="node1" class="node">
<title>\\Async\\Exception\\SessionException</title>
<polygon fill="none" stroke="#000000" points="467.3749,-276 346.1393,-276 346.1393,-240 467.3749,-240 467.3749,-276"/>
<text text-anchor="middle" x="406.7571" y="-254.7" font-family="Courier,monospace" font-size="11.00" fill="#000000">SessionException</text>
</g>
<!-- \\Exception -->
<g id="node11" class="node">
<title>\\Exception</title>
<ellipse fill="none" stroke="#000000" cx="48.417" cy="-227" rx="48.3341" ry="18"/>
<text text-anchor="middle" x="48.417" y="-222.8" font-family="Times,serif" font-size="14.00" fill="#c0c0c0">\Exception</text>
</g>
<!-- \\Async\\Exception\\SessionException&#45;&gt;\\Exception -->
<g id="edge1" class="edge">
<title>\\Async\\Exception\\SessionException&#45;&gt;\\Exception</title>
<path fill="none" stroke="#000000" d="M360.596,-239.9771C314.542,-222.8508 246.8527,-200.2231 219.741,-204"/>
</g>
<!-- \\Async\\Exception\\EnvException -->
<g id="node2" class="node">
<title>\\Async\\Exception\\EnvException</title>
<polygon fill="none" stroke="#000000" points="454.4702,-222 359.0439,-222 359.0439,-186 454.4702,-186 454.4702,-222"/>
<text text-anchor="middle" x="406.7571" y="-200.7" font-family="Courier,monospace" font-size="11.00" fill="#000000">EnvException</text>
</g>
<!-- \\Async\\Exception\\EnvException&#45;&gt;\\Exception -->
<g id="edge3" class="edge">
<title>\\Async\\Exception\\EnvException&#45;&gt;\\Exception</title>
<path fill="none" stroke="#000000" d="M358.8487,-200.3773C320.9168,-198.3793 266.691,-197.4595 219.741,-204"/>
</g>
<!-- \\Async\\Exception\\PidsFileException -->
<g id="node3" class="node">
<title>\\Async\\Exception\\PidsFileException</title>
<polygon fill="none" stroke="#000000" points="470.9755,-330 342.5386,-330 342.5386,-294 470.9755,-294 470.9755,-330"/>
<text text-anchor="middle" x="406.7571" y="-308.7" font-family="Courier,monospace" font-size="11.00" fill="#000000">PidsFileException</text>
</g>
<!-- \\Async\\Exception\\FileException -->
<g id="node4" class="node">
<title>\\Async\\Exception\\FileException</title>
<polygon fill="none" stroke="#000000" points="270.5551,-299 168.9268,-299 168.9268,-263 270.5551,-263 270.5551,-299"/>
<text text-anchor="middle" x="219.741" y="-277.7" font-family="Courier,monospace" font-size="11.00" fill="#000000">FileException</text>
</g>
<!-- \\Async\\Exception\\PidsFileException&#45;&gt;\\Async\\Exception\\FileException -->
<g id="edge4" class="edge">
<title>\\Async\\Exception\\PidsFileException&#45;&gt;\\Async\\Exception\\FileException</title>
<path fill="none" stroke="#000000" d="M342.3967,-301.3316C322.4224,-298.0206 300.4764,-294.3828 280.7379,-291.1109"/>
<polygon fill="none" stroke="#000000" points="281.0771,-287.6195 270.6393,-289.437 279.9323,-294.5252 281.0771,-287.6195"/>
</g>
<!-- \\Async\\Exception\\FileException&#45;&gt;\\Exception -->
<g id="edge5" class="edge">
<title>\\Async\\Exception\\FileException&#45;&gt;\\Exception</title>
<path fill="none" stroke="#000000" d="M168.802,-264.9444C145.5173,-257.6053 118.1125,-248.9675 95.3367,-241.7887"/>
<polygon fill="none" stroke="#000000" points="96.1476,-238.3746 85.5579,-238.7065 94.0432,-245.0509 96.1476,-238.3746"/>
</g>
<!-- \\Async\\Exception\\ForkException -->
<g id="node5" class="node">
<title>\\Async\\Exception\\ForkException</title>
<polygon fill="none" stroke="#000000" points="457.5712,-168 355.9429,-168 355.9429,-132 457.5712,-132 457.5712,-168"/>
<text text-anchor="middle" x="406.7571" y="-146.7" font-family="Courier,monospace" font-size="11.00" fill="#000000">ForkException</text>
</g>
<!-- \\Async\\Exception\\ForkException&#45;&gt;\\Exception -->
<g id="edge6" class="edge">
<title>\\Async\\Exception\\ForkException&#45;&gt;\\Exception</title>
<path fill="none" stroke="#000000" d="M358.367,-168.1083C321.0878,-181.039 267.9396,-197.2856 219.741,-204"/>
</g>
<!-- \\Async\\Exception\\JobException -->
<g id="node6" class="node">
<title>\\Async\\Exception\\JobException</title>
<polygon fill="none" stroke="#000000" points="454.4702,-114 359.0439,-114 359.0439,-78 454.4702,-78 454.4702,-114"/>
<text text-anchor="middle" x="406.7571" y="-92.7" font-family="Courier,monospace" font-size="11.00" fill="#000000">JobException</text>
</g>
<!-- \\Async\\Exception\\JobException&#45;&gt;\\Exception -->
<g id="edge7" class="edge">
<title>\\Async\\Exception\\JobException&#45;&gt;\\Exception</title>
<path fill="none" stroke="#000000" d="M219.741,-204C181.2211,-209.3661 137.7965,-215.1934 104.3042,-219.6397"/>
<polygon fill="none" stroke="#000000" points="103.6986,-216.1893 94.2454,-220.9733 104.6186,-223.1286 103.6986,-216.1893"/>
<path fill="none" stroke="#000000" d="M361.0889,-114.0083C354.807,-116.8389 348.5066,-119.8701 342.6479,-123 284.9449,-153.8267 284.5364,-194.9735 219.741,-204"/>
</g>
<!-- \\Async\\Contract\\JobInterface -->
<g id="node7" class="node">
<title>\\Async\\Contract\\JobInterface</title>
<polygon fill="none" stroke="#000000" points="267.4541,-428 172.0278,-428 172.0278,-392 267.4541,-392 267.4541,-428"/>
<text text-anchor="middle" x="219.741" y="-406.7" font-family="Courier,monospace" font-size="11.00" fill="#000000">JobInterface</text>
</g>
<!-- \\Async\\DaemonProcess -->
<g id="node8" class="node">
<title>\\Async\\DaemonProcess</title>
<polygon fill="none" stroke="#000000" points="457.5712,-401 355.9429,-401 355.9429,-365 457.5712,-365 457.5712,-401"/>
<text text-anchor="middle" x="406.7571" y="-379.7" font-family="Courier,monospace" font-size="11.00" fill="#000000">DaemonProcess</text>
</g>
<!-- \\Async\\Job -->
<g id="node9" class="node">
<title>\\Async\\Job</title>
<polygon fill="none" stroke="#000000" points="433.7571,-455 379.7571,-455 379.7571,-419 433.7571,-419 433.7571,-455"/>
<text text-anchor="middle" x="406.7571" y="-433.7" font-family="Courier,monospace" font-size="11.00" fill="#000000">Job</text>
</g>
<!-- \\Async\\Job&#45;&gt;\\Async\\Contract\\JobInterface -->
<g id="edge2" class="edge">
<title>\\Async\\Job&#45;&gt;\\Async\\Contract\\JobInterface</title>
<path fill="none" stroke="#000000" stroke-dasharray="1,5" d="M379.5633,-433.074C353.0308,-429.2434 311.8224,-423.294 277.8953,-418.3959"/>
<polygon fill="none" stroke="#000000" points="278.0219,-414.878 267.6243,-416.913 277.0216,-421.8061 278.0219,-414.878"/>
</g>
<!-- \\Async\\Logger -->
<g id="node10" class="node">
<title>\\Async\\Logger</title>
<polygon fill="none" stroke="#000000" points="434.3649,-60 379.1492,-60 379.1492,-24 434.3649,-24 434.3649,-60"/>
<text text-anchor="middle" x="406.7571" y="-38.7" font-family="Courier,monospace" font-size="11.00" fill="#000000">Logger</text>
</g>
</g>
</svg>
